<svg xmlns="http://www.w3.org/2000/svg" width="640" height="420" viewBox="0 0 640 420" role="img" aria-labelledby="title desc">
  <title id="title">지원금 신청 체크리스트</title>
  <desc id="desc">대상 조건, 준비 서류, 공식 출처 확인을 나타내는 안내 이미지</desc>
  <rect width="640" height="420" rx="28" fill="#f5f9ff"/>
  <rect x="64" y="54" width="350" height="312" rx="22" fill="#ffffff" stroke="#d7e5ff" stroke-width="4"/>
  <rect x="118" y="34" width="150" height="54" rx="18" fill="#2563eb"/>
  <circle cx="148" cy="61" r="10" fill="#bfdbfe"/>
  <rect x="172" y="54" width="62" height="14" rx="7" fill="#dbeafe"/>
  <circle cx="112" cy="142" r="22" fill="#dcfce7"/>
  <path d="M101 142l8 8 17-20" fill="none" stroke="#16a34a" stroke-width="7" stroke-linecap="round" stroke-linejoin="round"/>
  <rect x="154" y="126" width="190" height="16" rx="8" fill="#1f2937" opacity=".82"/>
  <rect x="154" y="153" width="138" height="12" rx="6" fill="#94a3b8"/>
  <circle cx="112" cy="220" r="22" fill="#fee2e2"/>
  <path d="M101 220l8 8 17-20" fill="none" stroke="#ef4444" stroke-width="7" stroke-linecap="round" stroke-linejoin="round"/>
  <rect x="154" y="204" width="210" height="16" rx="8" fill="#1f2937" opacity=".82"/>
  <rect x="154" y="231" width="160" height="12" rx="6" fill="#94a3b8"/>
  <circle cx="112" cy="298" r="22" fill="#ede9fe"/>
  <path d="M101 298l8 8 17-20" fill="none" stroke="#7c3aed" stroke-width="7" stroke-linecap="round" stroke-linejoin="round"/>
  <rect x="154" y="282" width="178" height="16" rx="8" fill="#1f2937" opacity=".82"/>
  <rect x="154" y="309" width="118" height="12" rx="6" fill="#94a3b8"/>
  <circle cx="474" cy="158" r="58" fill="#dbeafe"/>
  <path d="M450 162l19 19 43-55" fill="none" stroke="#2563eb" stroke-width="16" stroke-linecap="round" stroke-linejoin="round"/>
  <rect x="444" y="242" width="112" height="86" rx="18" fill="#ffffff" stroke="#bfdbfe" stroke-width="4"/>
  <rect x="468" y="266" width="64" height="12" rx="6" fill="#2563eb" opacity=".9"/>
  <rect x="468" y="292" width="44" height="10" rx="5" fill="#94a3b8"/>
</svg>
